<svg width="580" height="400" xmlns="http://www.w3.org/2000/svg">
 <!-- Created with Method Draw - http://github.com/duopixel/Method-Draw/ -->
 <g>
  <title>background</title>
  <rect fill="#fff" id="canvas_background" height="402" width="582" y="-1" x="-1"/>
  <g display="none" overflow="visible" y="0" x="0" height="100%" width="100%" id="canvasGrid">
   <rect fill="url(#gridpattern)" stroke-width="0" y="0" x="0" height="100%" width="100%"/>
  </g>
 </g>
 <g>
  <title>Layer 1</title>
  <ellipse stroke="#000" ry="130.000004" rx="134.5" id="svg_1" cy="180.437504" cx="303" stroke-width="1.5" fill="#33666C"/>
  <text stroke="#000" transform="matrix(1.8522727489471436,0,0,1.814814805984497,-191.33523213863373,-103.02314703166485) " xml:space="preserve" text-anchor="start" font-family="Helvetica, Arial, sans-serif" font-size="24" id="svg_3" y="131.906888" x="221.800614" stroke-opacity="null" stroke-width="0" fill="#000000">D A C U</text>
  <path id="svg_4" d="m315.710971,196.838852c-1.95976,-2.887053 -4.357387,-5.224424 -6.762377,-6.859506c-2.806246,1.675968 -6.224101,2.696509 -9.950228,2.696509c-3.733443,0 -7.156215,-1.022529 -9.957513,-2.696509c-2.404985,1.635082 -4.805061,3.972453 -6.769631,6.859506c-4.560453,6.70291 -5.061992,13.578386 -1.123038,15.361105c1.76403,0.803058 3.613589,0.204505 5.524393,-1.296906c-0.335181,1.522337 -0.53092,3.172353 -0.53092,4.898223c0,7.667601 3.652765,13.878677 8.154401,13.878677c2.713287,0 4.056445,-2.261592 4.702309,-5.724262c0.643481,3.46267 1.986628,5.724262 4.690081,5.724262c4.509033,0 8.161832,-6.211076 8.161832,-13.878677c0,-1.725873 -0.195804,-3.375886 -0.53827,-4.898223c1.915654,1.501411 3.76278,2.099965 5.531707,1.296906c3.936529,-1.782719 3.427585,-8.658198 -1.132742,-15.361105l-0.000003,0zm-16.717421,-6.778707c7.574533,0 13.717874,-5.009948 13.717874,-11.190095s-6.143342,-11.190109 -13.717874,-11.190109c-7.577109,0 -13.725303,5.010945 -13.725303,11.190109s6.148194,11.190095 13.725303,11.190095z" stroke-opacity="null" stroke-width="1.5" stroke="#000" fill="#999999"/>
  <text xml:space="preserve" text-anchor="start" font-family="Helvetica, Arial, sans-serif" font-size="20" id="svg_5" y="249.4375" x="204.5" stroke-opacity="null" stroke-width="0" stroke="#000" fill="#000000">Ingeniero de Sistemas</text>
  <text stroke="#000" transform="matrix(0.7608540654182434,0,0,0.8181818127632141,62.775807827711105,23.71590979769826) " xml:space="preserve" text-anchor="start" font-family="Helvetica, Arial, sans-serif" font-size="20" id="svg_6" y="163.104167" x="187.584188" stroke-opacity="null" stroke-width="0" fill="#000000">David Andrés Carvajal Urbina</text>
  <path id="svg_7" d="m291.52816,277.226253l15.484242,0c2.231951,-0.004185 3.754607,-1.906619 3.747173,-3.863796l0,-1.316001c4.418972,-0.003516 7.625007,-3.365755 7.623355,-7.286302c0.001652,-3.990357 -3.141448,-7.268725 -6.799918,-7.265879l-23.867108,0l0,15.868517c0.003469,2.154887 1.834851,3.859611 3.812256,3.863461zm19.23092,-16.747078l0,0l0.823437,0c3.027472,-0.004855 3.998582,2.896843 3.984046,4.302742c0.002973,2.270064 -1.655958,4.447216 -4.807482,4.235946l0,-8.538688zm-31.575532,17.713362c0.002808,2.93317 2.209156,4.293367 3.985037,4.301738l32.030611,0c2.118305,-0.00837 3.974961,-1.696354 3.984376,-4.301738l-40.000024,0z" fill-opacity="null" stroke-opacity="null" stroke-width="1.5" stroke="#000" fill="#999999"/>
 </g>
</svg>